<svg version="1.2" xmlns="http://www.w3.org/2000/svg" viewBox="6.383886931444096 148.38786845787098 788.1056939143149 102.34273448170404" width="800" height="104.4359949302915">
	<style>
		.s0 { fill: #0f5454 } 
		.s1 { fill: #050505 } 
	</style>
	<g id="Default">
		<g id="&lt;Group&gt;">
			<g id="&lt;Group&gt;">
				<path id="&lt;Compound Path&gt;" class="s0" d="m102.78 149.4l-96.4-0.01 0.05 44.66c0.01 26.45 31.63 47.9 37.97 51.63 3.86 2.26 9.77 5.05 9.77 5.05 0 0 5.92-2.79 9.78-5.06 6.33-3.73 38.85-25.15 38.84-51.61zm-27.4 78.55c-8.96 7.76-21.18 14.41-21.21 14.43-0.03-0.02-12.28-6.66-21.24-14.41-12.48-10.8-18.81-23.21-18.81-33.89l-0.04-37.01h80.99v37.03c0.01 10.68-7.23 23.04-19.69 33.85z"/>
				<path id="&lt;Path&gt;" class="s1" d="m50.21 172.26v-7.51h-28.31l0.04 29.38c0 18.86 20.22 31.81 28.27 36.75 0-2.17 0-45.24 0-45.24h-13.19v7.68h5.51v21.36c-1.8-1.27-12.77-9.44-12.77-23.37v-19.05z"/>
				<path id="&lt;Compound Path&gt;" class="s1" d="m57.89 164.75c0 7.58 0 64.02 0 66.13 3.32-1.99 7.67-4.94 7.67-4.94v-32.62h5.34c0 0 6.29 19.97 6.77 21.27 3.9-4.16 5.54-7.47 5.54-7.47 0 0-3.1-10.34-4.36-14.03 5.7-2.93 8.21-6.32 8.21-15.49 0-0.18 0-12.85 0-12.85zm21.49 12.27v2.08c-0.2 3.65-1.39 6.55-7 6.55h-6.81v-13.24h13.81z"/>
			</g>
			<g id="&lt;Group&gt;">
				<g id="&lt;Group&gt;">
					<g id="&lt;Group&gt;">
						<path id="&lt;Compound Path&gt;" class="s1" d="m209.07 176.11h25.52v7.07h-17.86v8.66h14.32v7.08h-14.32v11.37h18.45v7.07h-26.11z"/>
						<path id="&lt;Compound Path&gt;" class="s1" d="m271.72 175.64c7.13 0 13.08 2.77 16.68 9.31 1.83 3.24 2.77 7.19 2.77 11.78 0 9.2-4.07 15.91-9.78 18.92-2.89 1.47-6.07 2.18-9.67 2.18-7.13 0-13.02-2.77-16.73-9.31-1.83-3.24-2.71-7.19-2.71-11.79 0-9.19 4.06-15.96 9.78-18.85 2.89-1.47 6.07-2.24 9.66-2.24zm0 7.07q-5.02 0-8.36 3.54c-2.18 2.35-3.3 5.83-3.3 10.48 0 4.66 1.12 8.14 3.3 10.49q3.34 3.54 8.36 3.54 5.04 0 8.31-3.54 3.36-3.52 3.36-10.49 0-6.96-3.36-10.48-3.27-3.54-8.31-3.54z"/>
						<path id="&lt;Compound Path&gt;" class="s1" d="m359.7 198.92l11.43 18.44h-8.55l-11.07-17.8h-4.01v17.8h-7.66v-41.25h15.02c8.02 0 12.55 4.66 12.55 11.73 0 5.48-2.76 9.6-7.71 11.08zm-4.78-6.43c3.24 0 4.83-1.53 4.83-4.65 0-3.13-1.59-4.66-4.83-4.66h-7.42v9.31z"/>
						<path id="&lt;Compound Path&gt;" class="s1" d="m397.17 176.11v41.25h-7.66v-41.25z"/>
						<path id="&lt;Compound Path&gt;" class="s1" d="m416.73 183.18v-7.07h30.53v7.07h-11.44v34.18h-7.66v-34.18z"/>
						<path id="&lt;Compound Path&gt;" class="s1" d="m464.81 183.18v-7.07h30.53v7.07h-11.43v34.18h-7.66v-34.18z"/>
						<path id="&lt;Compound Path&gt;" class="s1" d="m514.9 176.11h25.51v7.07h-17.85v8.66h14.32v7.08h-14.32v11.37h18.44v7.07h-26.1z"/>
						<path id="&lt;Compound Path&gt;" class="s1" d="m584.19 176.11h7.66v41.25h-8.07l-15.14-27.22v27.22h-7.66v-41.25h8.07l15.14 27.22z"/>
						<path id="&lt;Compound Path&gt;" class="s1" d="m614.01 217.36v-41.25h8.6l9.72 25.75 9.73-25.75h8.6v41.25h-7.66v-25.46l-7.9 21.69h-5.53l-7.9-21.69v25.46z"/>
						<path id="&lt;Compound Path&gt;" class="s1" d="m668.13 176.11h8.25l7.48 16.03 7.48-16.03h8.25l-11.9 23.69v17.56h-7.66v-17.56z"/>
						<path id="&lt;Compound Path&gt;" class="s1" d="m717.12 176.11h25.52v7.07h-17.86v8.66h14.32v7.08h-14.32v11.37h18.45v7.07h-26.11z"/>
						<path id="&lt;Compound Path&gt;" class="s1" d="m783.06 198.92l11.43 18.44h-8.54l-11.08-17.8h-4.01v17.8h-7.66v-41.25h15.03c8.01 0 12.55 4.66 12.55 11.73 0 5.48-2.77 9.6-7.72 11.08zm-4.77-6.43c3.24 0 4.83-1.53 4.83-4.65 0-3.13-1.59-4.66-4.83-4.66h-7.43v9.31z"/>
					</g>
				</g>
				<path id="&lt;Path&gt;" class="s1" d="m173.06 201.84h7.18c0 1.41 0 3.05 0 4.33-0.89 1.78-3.35 4.67-9.2 4.67-6.91 0-11.86-4.61-11.86-14.06 0-9.22 4.84-14.07 11.87-14.07 4.25 0 7.46 2.28 9.11 5.83l7.47-1.82c-2.38-6.39-7.99-11.1-16.58-11.1-5.49 0-10.1 1.83-13.94 5.56q-5.75 5.58-5.73 15.6-0.02 10.01 5.55 15.59c3.72 3.73 8.83 5.56 14.15 5.56 9.1 0 14.89-4.45 17.39-10.51 0-4.19 0.02-10.44 0.02-11.96-2.81 0-15.43 0-15.43 0z"/>
			</g>
		</g>
	</g>
</svg>